<svg xmlns="http://www.w3.org/2000/svg" width="192" height="192" viewBox="0 0 192 192">
  <rect width="192" height="192" rx="42" fill="#4f46e5"/>
  <!-- Large 4-pointed sparkle star (bottom-left area) -->
  <path d="M80 48 C84 68, 88 76, 108 80 C88 84, 84 88, 80 108 C76 88, 72 84, 52 80 C72 76, 76 68, 80 48Z" fill="white"/>
  <!-- Small 4-pointed sparkle star (upper-right area) -->
  <path d="M124 72 C126 80, 128 82, 136 84 C128 86, 126 88, 124 96 C122 88, 120 86, 112 84 C120 82, 122 80, 124 72Z" fill="white"/>
  <!-- Plus sign (top-right corner) -->
  <line x1="140" y1="42" x2="140" y2="58" stroke="white" stroke-width="4" stroke-linecap="round"/>
  <line x1="132" y1="50" x2="148" y2="50" stroke="white" stroke-width="4" stroke-linecap="round"/>
  <!-- Small dot accent (bottom-right) -->
  <circle cx="132" cy="120" r="4" fill="white" opacity="0.6"/>
</svg>
