
<svg version="1.1" id="Layer_1" xmlns="http://www.w3.org/2000/svg" xmlns:xlink="http://www.w3.org/1999/xlink" x="0px" y="0px"
	 width="100%" viewBox="0 0 512 512" enable-background="new 0 0 512 512" xml:space="preserve">
<path fill="#4F46E5" opacity="1.000000" stroke="none" 
	d="
M323.000000,513.000000 
	C215.359482,513.000000 108.218956,513.000000 1.039217,513.000000 
	C1.039217,342.401123 1.039217,171.802231 1.039217,1.101671 
	C171.557190,1.101671 342.114471,1.101671 512.835876,1.101671 
	C512.835876,171.666534 512.835876,342.333252 512.835876,513.000000 
	C449.802216,513.000000 386.651093,513.000000 323.000000,513.000000 
M233.799088,404.693573 
	C237.515396,409.870117 242.451996,413.576202 248.538742,415.163513 
	C266.814362,419.929382 282.049866,410.248383 285.823517,391.256470 
	C290.816589,366.127686 295.371063,340.912048 300.180267,315.746368 
	C302.169556,305.336853 305.415741,302.158844 315.626678,300.205170 
	C329.517944,297.547333 343.437958,295.031769 357.296844,292.215149 
	C371.271698,289.374969 385.311676,286.713928 399.086365,283.077545 
	C409.023132,280.454346 416.877991,267.812683 416.683655,257.024292 
	C416.474884,245.435501 409.111420,233.830002 399.169617,230.851425 
	C390.288849,228.190735 381.185211,226.172836 372.078766,224.387207 
	C352.653564,220.578247 333.149689,217.172318 313.706055,213.454773 
	C306.913208,212.156006 302.093689,208.233505 300.741852,201.211884 
	C297.345673,183.571960 294.313385,165.861374 290.847595,148.235672 
	C288.703094,137.329712 286.640533,126.343857 283.439362,115.726036 
	C279.657227,103.181206 265.430176,95.693130 252.475983,97.883286 
	C239.545334,100.069427 230.580978,109.489990 227.910934,123.368683 
	C223.165390,148.035858 218.725510,172.761765 213.998734,197.432648 
	C211.735580,209.244873 208.490555,212.052780 196.757919,214.209900 
	C171.890366,218.781982 147.006531,223.284348 122.215393,228.245132 
	C110.536026,230.582199 101.731476,237.190903 98.661751,249.247284 
	C94.110229,267.123383 104.303543,282.389008 122.914360,285.960419 
	C148.405182,290.852142 173.937973,295.524719 199.437180,300.373260 
	C208.137634,302.027618 212.025406,306.127380 213.665314,314.829315 
	C217.700104,336.239410 221.682663,357.659607 225.808060,379.052246 
	C227.466660,387.652985 228.009964,396.623322 233.799088,404.693573 
M107.351845,401.147308 
	C113.633301,408.421753 121.348007,413.272705 130.757523,415.567383 
	C149.653519,420.175507 169.338974,411.463898 179.125793,393.969177 
	C188.453323,377.295471 185.380234,356.094818 171.644623,342.357788 
	C157.780624,328.492371 136.364395,325.541718 119.590317,335.104065 
	C95.580391,348.791382 90.194008,379.709686 107.351845,401.147308 
M337.116852,128.478897 
	C330.911011,132.514313 328.612030,137.947128 330.294678,144.600662 
	C331.780579,150.476242 337.152496,154.720596 343.913818,155.132965 
	C347.398773,155.345535 350.908112,155.373611 354.397156,155.240891 
	C357.657043,155.116882 358.827759,156.519424 358.767151,159.692459 
	C358.687805,163.846680 358.719879,168.027313 359.100861,172.159988 
	C359.597961,177.552231 364.556946,182.722870 369.847534,183.854797 
	C379.402618,185.899124 387.396027,179.330658 387.789703,168.970306 
	C387.957977,164.541901 387.817841,160.101776 387.817841,155.067032 
	C393.574982,155.067032 398.711761,155.829514 403.474579,154.822723 
	C407.199615,154.035309 411.568726,151.860489 413.724945,148.899216 
	C420.813843,139.163544 414.016296,126.852829 401.615906,126.231323 
	C397.185120,126.009254 392.733856,126.195724 387.802734,126.195724 
	C387.802734,121.125565 387.931854,116.664314 387.775024,112.213135 
	C387.476349,103.736259 381.353333,97.687622 373.264954,97.484543 
	C366.298279,97.309624 358.659912,103.345360 358.837311,111.575996 
	C358.937256,116.211456 358.855316,120.850822 358.855316,125.157669 
	C351.399414,126.177139 344.569427,127.111023 337.116852,128.478897 
z"/>
<path fill="#FCFBFE" opacity="1.000000" stroke="none" 
	d="
M233.559875,404.419250 
	C228.009964,396.623322 227.466660,387.652985 225.808060,379.052246 
	C221.682663,357.659607 217.700104,336.239410 213.665314,314.829315 
	C212.025406,306.127380 208.137634,302.027618 199.437180,300.373260 
	C173.937973,295.524719 148.405182,290.852142 122.914360,285.960419 
	C104.303543,282.389008 94.110229,267.123383 98.661751,249.247284 
	C101.731476,237.190903 110.536026,230.582199 122.215393,228.245132 
	C147.006531,223.284348 171.890366,218.781982 196.757919,214.209900 
	C208.490555,212.052780 211.735580,209.244873 213.998734,197.432648 
	C218.725510,172.761765 223.165390,148.035858 227.910934,123.368683 
	C230.580978,109.489990 239.545334,100.069427 252.475983,97.883286 
	C265.430176,95.693130 279.657227,103.181206 283.439362,115.726036 
	C286.640533,126.343857 288.703094,137.329712 290.847595,148.235672 
	C294.313385,165.861374 297.345673,183.571960 300.741852,201.211884 
	C302.093689,208.233505 306.913208,212.156006 313.706055,213.454773 
	C333.149689,217.172318 352.653564,220.578247 372.078766,224.387207 
	C381.185211,226.172836 390.288849,228.190735 399.169617,230.851425 
	C409.111420,233.830002 416.474884,245.435501 416.683655,257.024292 
	C416.877991,267.812683 409.023132,280.454346 399.086365,283.077545 
	C385.311676,286.713928 371.271698,289.374969 357.296844,292.215149 
	C343.437958,295.031769 329.517944,297.547333 315.626678,300.205170 
	C305.415741,302.158844 302.169556,305.336853 300.180267,315.746368 
	C295.371063,340.912048 290.816589,366.127686 285.823517,391.256470 
	C282.049866,410.248383 266.814362,419.929382 248.538742,415.163513 
	C242.451996,413.576202 237.515396,409.870117 233.559875,404.419250 
M237.460602,295.177460 
	C238.293350,297.166687 239.475815,299.083588 239.904434,301.156403 
	C243.913483,320.544373 247.821228,339.953491 251.697159,359.368713 
	C253.297791,367.386475 254.749847,375.433899 256.269470,383.467834 
	C256.726135,383.465973 257.182800,383.464081 257.639465,383.462219 
	C258.785675,377.701477 259.913818,371.937073 261.081299,366.180634 
	C265.512939,344.329437 269.320374,322.324432 274.633331,300.689331 
	C277.873535,287.494934 287.276154,277.917786 300.485321,274.562073 
	C319.971039,269.611847 339.854675,266.220673 359.584198,262.241608 
	C367.451385,260.654938 375.359467,259.270966 383.248932,257.794769 
	C382.203644,256.321289 381.209869,255.917786 380.176727,255.719620 
	C356.642578,251.205887 333.095551,246.759064 309.569275,242.204819 
	C291.152405,238.639679 277.951965,228.531403 273.416351,209.969345 
	C268.920135,191.568451 265.853363,172.817032 262.211243,154.209259 
	C260.667786,146.323700 259.255981,138.412369 257.784332,130.512756 
	C256.273895,131.797623 255.801956,133.105896 255.544174,134.455109 
	C251.108963,157.668259 246.734879,180.893097 242.274963,204.101471 
	C238.491943,223.787384 227.374542,236.921310 207.511902,241.471237 
	C194.862015,244.368927 182.023529,246.443924 169.268280,248.880859 
	C156.616913,251.297974 143.963867,253.706406 131.311569,256.118652 
	C132.648026,257.687500 134.080231,258.324951 135.579559,258.612701 
	C157.154999,262.753204 178.692841,267.116028 200.337296,270.861542 
	C216.098785,273.589020 229.096741,280.011353 237.460602,295.177460 
z"/>
<path fill="#FBFBFE" opacity="1.000000" stroke="none" 
	d="
M107.112503,400.883759 
	C90.194008,379.709686 95.580391,348.791382 119.590317,335.104065 
	C136.364395,325.541718 157.780624,328.492371 171.644623,342.357788 
	C185.380234,356.094818 188.453323,377.295471 179.125793,393.969177 
	C169.338974,411.463898 149.653519,420.175507 130.757523,415.567383 
	C121.348007,413.272705 113.633301,408.421753 107.112503,400.883759 
M126.949898,368.701263 
	C126.700500,369.997864 126.286018,371.287292 126.229454,372.592224 
	C125.940430,379.260590 130.623611,385.470398 137.279434,387.378510 
	C143.259430,389.092865 150.457886,385.844238 153.742142,379.948975 
	C156.698730,374.641876 155.185898,367.143677 150.716232,362.554443 
	C144.998352,356.683563 131.395721,357.006592 126.949898,368.701263 
z"/>
<path fill="#FCFBFE" opacity="1.000000" stroke="none" 
	d="
M337.428162,128.261902 
	C344.569427,127.111023 351.399414,126.177139 358.855316,125.157669 
	C358.855316,120.850822 358.937256,116.211456 358.837311,111.575996 
	C358.659912,103.345360 366.298279,97.309624 373.264954,97.484543 
	C381.353333,97.687622 387.476349,103.736259 387.775024,112.213135 
	C387.931854,116.664314 387.802734,121.125565 387.802734,126.195724 
	C392.733856,126.195724 397.185120,126.009254 401.615906,126.231323 
	C414.016296,126.852829 420.813843,139.163544 413.724945,148.899216 
	C411.568726,151.860489 407.199615,154.035309 403.474579,154.822723 
	C398.711761,155.829514 393.574982,155.067032 387.817841,155.067032 
	C387.817841,160.101776 387.957977,164.541901 387.789703,168.970306 
	C387.396027,179.330658 379.402618,185.899124 369.847534,183.854797 
	C364.556946,182.722870 359.597961,177.552231 359.100861,172.159988 
	C358.719879,168.027313 358.687805,163.846680 358.767151,159.692459 
	C358.827759,156.519424 357.657043,155.116882 354.397156,155.240891 
	C350.908112,155.373611 347.398773,155.345535 343.913818,155.132965 
	C337.152496,154.720596 331.780579,150.476242 330.294678,144.600662 
	C328.612030,137.947128 330.911011,132.514313 337.428162,128.261902 
z"/>
<path fill="#534AE6" opacity="1.000000" stroke="none" 
	d="
M237.256683,294.864380 
	C229.096741,280.011353 216.098785,273.589020 200.337296,270.861542 
	C178.692841,267.116028 157.154999,262.753204 135.579559,258.612701 
	C134.080231,258.324951 132.648026,257.687500 131.311569,256.118652 
	C143.963867,253.706406 156.616913,251.297974 169.268280,248.880859 
	C182.023529,246.443924 194.862015,244.368927 207.511902,241.471237 
	C227.374542,236.921310 238.491943,223.787384 242.274963,204.101471 
	C246.734879,180.893097 251.108963,157.668259 255.544174,134.455109 
	C255.801956,133.105896 256.273895,131.797623 257.784332,130.512756 
	C259.255981,138.412369 260.667786,146.323700 262.211243,154.209259 
	C265.853363,172.817032 268.920135,191.568451 273.416351,209.969345 
	C277.951965,228.531403 291.152405,238.639679 309.569275,242.204819 
	C333.095551,246.759064 356.642578,251.205887 380.176727,255.719620 
	C381.209869,255.917786 382.203644,256.321289 383.248932,257.794769 
	C375.359467,259.270966 367.451385,260.654938 359.584198,262.241608 
	C339.854675,266.220673 319.971039,269.611847 300.485321,274.562073 
	C287.276154,277.917786 277.873535,287.494934 274.633331,300.689331 
	C269.320374,322.324432 265.512939,344.329437 261.081299,366.180634 
	C259.913818,371.937073 258.785675,377.701477 257.639465,383.462219 
	C257.182800,383.464081 256.726135,383.465973 256.269470,383.467834 
	C254.749847,375.433899 253.297791,367.386475 251.697159,359.368713 
	C247.821228,339.953491 243.913483,320.544373 239.904434,301.156403 
	C239.475815,299.083588 238.293350,297.166687 237.256683,294.864380 
z"/>
<path fill="#564DE6" opacity="1.000000" stroke="none" 
	d="
M127.106033,368.346069 
	C131.395721,357.006592 144.998352,356.683563 150.716232,362.554443 
	C155.185898,367.143677 156.698730,374.641876 153.742142,379.948975 
	C150.457886,385.844238 143.259430,389.092865 137.279434,387.378510 
	C130.623611,385.470398 125.940430,379.260590 126.229454,372.592224 
	C126.286018,371.287292 126.700500,369.997864 127.106033,368.346069 
z"/>
</svg>
